<?xml version="1.0" standalone="no"?>
<!DOCTYPE svg PUBLIC "-//W3C//DTD SVG 20010904//EN"
 "http://www.w3.org/TR/2001/REC-SVG-20010904/DTD/svg10.dtd">
<svg version="1.0" xmlns="http://www.w3.org/2000/svg"
 width="384.000000pt" height="384.000000pt" viewBox="0 0 384.000000 384.000000"
 preserveAspectRatio="xMidYMid meet">
<metadata>
Created by potrace 1.14, written by Peter Selinger 2001-2017
</metadata>
<g transform="translate(0.000000,384.000000) scale(0.100000,-0.100000)"
fill="#000000" stroke="none">
<path d="M1817 3204 c-4 -4 -28 -8 -54 -9 -71 -3 -150 -15 -218 -32 -148 -36
-215 -99 -233 -217 -6 -41 -8 -242 -3 -306 1 -13 42 -15 303 -15 l301 0 2 -33
c1 -18 -2 -35 -5 -37 -4 -3 -209 -5 -456 -5 -424 -1 -452 -2 -509 -21 -59 -21
-119 -61 -162 -109 -30 -33 -78 -135 -88 -185 -5 -22 -9 -42 -10 -45 -27 -103
-37 -268 -22 -395 7 -59 14 -100 17 -100 1 0 3 -8 5 -19 23 -122 70 -224 129
-281 38 -37 101 -73 119 -67 4 1 7 -2 7 -6 0 -4 65 -9 145 -11 l144 -2 4 178
c2 98 6 185 9 193 25 71 43 110 50 110 5 0 8 5 8 11 0 32 139 136 210 157 8 3
183 6 389 8 324 3 380 6 420 21 25 9 49 22 53 27 4 6 8 7 8 3 0 -21 89 79 115
130 l30 58 0 360 0 360 -28 57 c-15 31 -44 73 -65 93 -34 33 -124 85 -162 93
-64 14 -124 22 -193 27 -37 2 -72 7 -79 11 -7 4 -8 3 -4 -4 5 -9 0 -10 -16 -4
-27 9 -115 9 -124 -1 -4 -4 -12 -2 -19 3 -7 5 -15 7 -18 4z"/>
<path d="M2603 2398 c0 -84 -3 -164 -6 -178 -9 -47 -30 -110 -36 -110 -3 0
-12 -14 -19 -30 -18 -40 -81 -103 -135 -134 -82 -49 -135 -54 -494 -54 -281 0
-367 -4 -403 -18 -3 -1 -15 -5 -27 -9 -13 -4 -23 -11 -23 -16 0 -5 -5 -9 -12
-9 -18 0 -92 -82 -113 -125 -10 -21 -20 -55 -23 -74 -6 -43 -7 -667 0 -696 15
-68 73 -144 138 -181 19 -10 37 -22 40 -25 7 -8 112 -48 135 -52 11 -1 26 -6
33 -11 8 -5 34 -10 57 -11 24 -2 49 -6 55 -10 14 -9 220 -9 275 -1 104 16 225
47 225 57 0 5 3 8 8 7 26 -7 127 54 176 106 57 61 70 106 71 264 1 95 -2 142
-9 143 -6 0 -141 1 -299 1 -199 1 -290 4 -295 12 -11 18 -10 57 2 62 6 2 229
5 496 7 457 2 487 3 525 21 37 18 124 101 125 119 0 4 9 26 20 50 26 55 70
187 63 187 -3 0 0 6 6 14 6 8 11 18 9 22 -1 5 1 27 5 49 14 77 7 311 -10 338
-3 5 -7 21 -9 36 -3 31 -8 52 -25 111 -7 25 -13 50 -15 57 -5 28 -51 110 -76
138 -16 17 -28 34 -28 38 0 5 -4 5 -10 2 -5 -3 -10 -2 -10 3 0 4 -17 17 -37
27 -31 16 -66 20 -194 23 l-156 4 0 -154z"/>
</g>
</svg>
